<svg width="353" height="44" viewBox="0 0 353 44" fill="none" xmlns="http://www.w3.org/2000/svg">
<path d="M15.5283 1.84375C17.732 1.84375 19.5184 3.63034 19.5186 5.83398V8.375L19.7422 8.24316C21.6371 7.11809 24.0859 7.74183 25.2109 9.63672C26.336 11.5316 25.7113 13.9804 23.8164 15.1055L19.5186 17.6572V17.7881L23.1152 15.7119L23.2051 15.6611C25.0996 14.6305 27.4817 15.2934 28.5664 17.1719C29.651 19.0505 29.0342 21.4449 27.1943 22.5703L27.1055 22.623L19.5186 27.0029V27.1504L20.9483 26.3232L21.0381 26.2725C22.9314 25.2396 25.3135 25.9001 26.4004 27.7773C27.4871 29.6546 26.8736 32.0492 25.0352 33.1768L24.9463 33.2295L19.5186 36.3711V37.8535C19.5185 40.0572 17.732 41.8438 15.5283 41.8438C13.3248 41.8435 11.5382 40.0571 11.5381 37.8535V36.3457L6.15528 33.2295L6.06641 33.1768C4.22796 32.0492 3.61452 29.6546 4.70118 27.7773C5.78805 25.9001 8.17018 25.2396 10.0635 26.2725L10.1533 26.3232L11.5381 27.124V26.9775L3.9961 22.623L3.90723 22.5703C2.06745 21.4449 1.45058 19.0505 2.53516 17.1719C3.61987 15.2934 6.00199 14.6305 7.89649 15.6611L7.98634 15.7119L11.5381 17.7617V17.6299L7.28516 15.1055C5.39027 13.9804 4.76653 11.5316 5.89161 9.63672C7.01679 7.7421 9.4646 7.11816 11.3594 8.24316L11.5381 8.34863V5.83398C11.5382 3.6304 13.3247 1.84385 15.5283 1.84375Z" fill="#044918"/>
<path d="M15.5283 1.84375L15.5283 0.0597779L15.5282 0.0597779L15.5283 1.84375ZM19.5186 5.83398L21.3025 5.83398L21.3025 5.83389L19.5186 5.83398ZM19.5186 8.375H17.7346C17.7346 9.01525 18.0777 9.6064 18.6336 9.924C19.1895 10.2416 19.873 10.2369 20.4245 9.9118L19.5186 8.375ZM19.7422 8.24316L20.6482 9.77997L20.653 9.77713L19.7422 8.24316ZM25.2109 9.63672L26.7449 8.72598L26.7449 8.72593L25.2109 9.63672ZM23.8164 15.1055L24.7272 16.6394L24.7272 16.6394L23.8164 15.1055ZM19.5186 17.6572L18.6078 16.1233C18.0664 16.4447 17.7346 17.0276 17.7346 17.6572H19.5186ZM19.5186 17.7881H17.7346C17.7346 18.4254 18.0746 19.0143 18.6265 19.333C19.1784 19.6517 19.8585 19.6517 20.4104 19.3331L19.5186 17.7881ZM23.1152 15.7119L22.2374 14.1589C22.2327 14.1615 22.228 14.1642 22.2234 14.1669L23.1152 15.7119ZM23.2051 15.6611L22.3526 14.0941C22.3441 14.0987 22.3357 14.1033 22.3273 14.1081L23.2051 15.6611ZM28.5664 17.1719L30.1114 16.2799L30.1113 16.2798L28.5664 17.1719ZM27.1943 22.5703L28.1047 24.1045C28.1116 24.1004 28.1184 24.0963 28.1252 24.0922L27.1943 22.5703ZM27.1055 22.623L27.9974 24.168C28.0036 24.1645 28.0097 24.1609 28.0159 24.1572L27.1055 22.623ZM19.5186 27.0029L18.6266 25.4579C18.0746 25.7766 17.7346 26.3656 17.7346 27.0029H19.5186ZM19.5186 27.1504H17.7346C17.7346 27.788 18.0749 28.3772 18.6273 28.6958C19.1796 29.0143 19.86 29.0139 20.4119 28.6946L19.5186 27.1504ZM20.9483 26.3232L20.0704 24.7702C20.0652 24.7731 20.06 24.7761 20.0549 24.7791L20.9483 26.3232ZM21.0381 26.2725L20.1838 24.7064C20.1759 24.7106 20.1681 24.715 20.1603 24.7194L21.0381 26.2725ZM26.4004 27.7773L27.9443 26.8836L27.9443 26.8835L26.4004 27.7773ZM25.0352 33.1768L25.9456 34.7109C25.953 34.7065 25.9605 34.702 25.9679 34.6975L25.0352 33.1768ZM24.9463 33.2295L25.84 34.7735C25.8456 34.7702 25.8511 34.767 25.8567 34.7637L24.9463 33.2295ZM19.5186 36.3711L18.6249 34.8271C18.0739 35.146 17.7346 35.7344 17.7346 36.3711H19.5186ZM19.5186 37.8535L21.3025 37.8536V37.8535H19.5186ZM15.5283 41.8438L15.5282 43.6277L15.5283 43.6277L15.5283 41.8438ZM11.5381 37.8535L9.75412 37.8535L9.75412 37.8536L11.5381 37.8535ZM11.5381 36.3457H13.3221C13.3221 35.7091 12.9828 35.1207 12.4319 34.8018L11.5381 36.3457ZM6.15528 33.2295L5.24488 34.7637C5.2504 34.767 5.25593 34.7702 5.26148 34.7734L6.15528 33.2295ZM6.06641 33.1768L5.13372 34.6975C5.14112 34.702 5.14855 34.7065 5.15602 34.7109L6.06641 33.1768ZM4.70118 27.7773L3.15729 26.8835L3.15721 26.8836L4.70118 27.7773ZM10.0635 26.2725L10.9413 24.7194C10.9335 24.715 10.9257 24.7107 10.9178 24.7064L10.0635 26.2725ZM10.1533 26.3232L11.0464 24.7789C11.0413 24.776 11.0362 24.7731 11.0311 24.7702L10.1533 26.3232ZM11.5381 27.124L10.645 28.6684C11.197 28.9875 11.8773 28.9879 12.4295 28.6693C12.9818 28.3507 13.3221 27.7616 13.3221 27.124H11.5381ZM11.5381 26.9775H13.3221C13.3221 26.3402 12.9821 25.7513 12.4301 25.4326L11.5381 26.9775ZM3.9961 22.623L3.0857 24.1572C3.09181 24.1609 3.09795 24.1644 3.1041 24.168L3.9961 22.623ZM3.90723 22.5703L2.97631 24.0921C2.98313 24.0963 2.98997 24.1004 2.99684 24.1045L3.90723 22.5703ZM2.53516 17.1719L0.990258 16.2798L0.990191 16.2799L2.53516 17.1719ZM7.89649 15.6611L8.77431 14.1081C8.76592 14.1033 8.75749 14.0987 8.74903 14.0941L7.89649 15.6611ZM7.98634 15.7119L8.87806 14.1668C8.87344 14.1641 8.8688 14.1615 8.86415 14.1589L7.98634 15.7119ZM11.5381 17.7617L10.6464 19.3068C11.1983 19.6254 11.8783 19.6253 12.4302 19.3066C12.9821 18.9879 13.3221 18.399 13.3221 17.7617H11.5381ZM11.5381 17.6299H13.3221C13.3221 17.0002 12.9901 16.4172 12.4487 16.0958L11.5381 17.6299ZM7.28516 15.1055L6.37438 16.6394L6.37458 16.6395L7.28516 15.1055ZM5.89161 9.63672L4.35774 8.72578L4.35765 8.72594L5.89161 9.63672ZM11.3594 8.24316L10.4486 9.77713L10.4527 9.77953L11.3594 8.24316ZM11.5381 8.34863L10.6314 9.885C11.1829 10.2105 11.8666 10.2154 12.4227 9.89784C12.9788 9.5803 13.3221 8.98903 13.3221 8.34863H11.5381ZM11.5381 5.83398L9.75412 5.83389V5.83398H11.5381ZM15.5283 1.84375L15.5283 3.62772C16.7466 3.62772 17.7345 4.61553 17.7346 5.83408L19.5186 5.83398L21.3025 5.83389C21.3024 2.64515 18.7174 0.059778 15.5283 0.0597779L15.5283 1.84375ZM19.5186 5.83398H17.7346V8.375H19.5186H21.3025V5.83398H19.5186ZM19.5186 8.375L20.4245 9.9118L20.6482 9.77997L19.7422 8.24316L18.8362 6.70636L18.6126 6.8382L19.5186 8.375ZM19.7422 8.24316L20.653 9.77713C21.701 9.15487 23.0551 9.50011 23.677 10.5475L25.2109 9.63672L26.7449 8.72593C25.1166 5.98355 21.5732 5.08131 18.8314 6.7092L19.7422 8.24316ZM25.2109 9.63672L23.677 10.5475C24.2988 11.5949 23.9536 12.9493 22.9056 13.5715L23.8164 15.1055L24.7272 16.6394C27.4689 15.0115 28.3731 11.4683 26.7449 8.72598L25.2109 9.63672ZM23.8164 15.1055L22.9057 13.5715L18.6078 16.1233L19.5186 17.6572L20.4293 19.1912L24.7272 16.6394L23.8164 15.1055ZM19.5186 17.6572H17.7346V17.7881H19.5186H21.3025V17.6572H19.5186ZM19.5186 17.7881L20.4104 19.3331L24.0071 17.2569L23.1152 15.7119L22.2234 14.1669L18.6267 16.2431L19.5186 17.7881ZM23.1152 15.7119L23.9931 17.265L24.0829 17.2142L23.2051 15.6611L22.3273 14.1081L22.2374 14.1589L23.1152 15.7119ZM23.2051 15.6611L24.0576 17.2282C25.1044 16.6587 26.4219 17.0257 27.0215 18.064L28.5664 17.1719L30.1113 16.2798C28.5415 13.5612 25.0947 12.6022 22.3526 14.0941L23.2051 15.6611ZM28.5664 17.1719L27.0214 18.0638C27.621 19.1023 27.28 20.4266 26.2635 21.0485L27.1943 22.5703L28.1252 24.0922C30.7884 22.4632 31.6811 18.9987 30.1114 16.2799L28.5664 17.1719ZM27.1943 22.5703L26.2839 21.0361L26.1951 21.0889L27.1055 22.623L28.0159 24.1572L28.1047 24.1045L27.1943 22.5703ZM27.1055 22.623L26.2136 21.078L18.6266 25.4579L19.5186 27.0029L20.4105 28.5479L27.9974 24.168L27.1055 22.623ZM19.5186 27.0029H17.7346V27.1504H19.5186H21.3025V27.0029H19.5186ZM19.5186 27.1504L20.4119 28.6946L21.8416 27.8674L20.9483 26.3232L20.0549 24.7791L18.6252 25.6062L19.5186 27.1504ZM20.9483 26.3232L21.8261 27.8763L21.9159 27.8255L21.0381 26.2725L20.1603 24.7194L20.0704 24.7702L20.9483 26.3232ZM21.0381 26.2725L21.8924 27.8386C22.9382 27.2681 24.2556 27.6332 24.8565 28.6712L26.4004 27.7773L27.9443 26.8835C26.3715 24.1669 22.9246 23.2112 20.1838 24.7064L21.0381 26.2725ZM26.4004 27.7773L24.8565 28.6711C25.4573 29.709 25.118 31.0331 24.1025 31.656L25.0352 33.1768L25.9679 34.6975C28.6292 33.0652 29.517 29.6003 27.9443 26.8836L26.4004 27.7773ZM25.0352 33.1768L24.1248 31.6426L24.0359 31.6953L24.9463 33.2295L25.8567 34.7637L25.9456 34.7109L25.0352 33.1768ZM24.9463 33.2295L24.0526 31.6855L18.6249 34.8271L19.5186 36.3711L20.4122 37.9151L25.84 34.7735L24.9463 33.2295ZM19.5186 36.3711H17.7346V37.8535H19.5186H21.3025V36.3711H19.5186ZM19.5186 37.8535L17.7346 37.8535C17.7345 39.072 16.7467 40.0598 15.5283 40.0598L15.5283 41.8438L15.5283 43.6277C18.7173 43.6277 21.3024 41.0424 21.3025 37.8536L19.5186 37.8535ZM15.5283 41.8438L15.5285 40.0598C14.31 40.0597 13.3221 39.0717 13.3221 37.8535L11.5381 37.8535L9.75412 37.8536C9.75423 41.0424 12.3396 43.6274 15.5282 43.6277L15.5283 41.8438ZM11.5381 37.8535H13.3221V36.3457H11.5381H9.75412V37.8535H11.5381ZM11.5381 36.3457L12.4319 34.8018L7.04908 31.6856L6.15528 33.2295L5.26148 34.7734L10.6443 37.8896L11.5381 36.3457ZM6.15528 33.2295L7.06568 31.6953L6.97681 31.6426L6.06641 33.1768L5.15602 34.7109L5.24488 34.7637L6.15528 33.2295ZM6.06641 33.1768L6.99911 31.656C5.9836 31.0332 5.64431 29.7091 6.24515 28.6711L4.70118 27.7773L3.15721 26.8836C1.58472 29.6002 2.47232 33.0652 5.13372 34.6975L6.06641 33.1768ZM4.70118 27.7773L6.24507 28.6712C6.84603 27.6332 8.16335 27.268 9.20914 27.8386L10.0635 26.2725L10.9178 24.7064C8.177 23.2112 4.73007 24.1669 3.15729 26.8835L4.70118 27.7773ZM10.0635 26.2725L9.18567 27.8255L9.27551 27.8763L10.1533 26.3232L11.0311 24.7702L10.9413 24.7194L10.0635 26.2725ZM10.1533 26.3232L9.26027 27.8676L10.645 28.6684L11.5381 27.124L12.4312 25.5797L11.0464 24.7789L10.1533 26.3232ZM11.5381 27.124H13.3221V26.9775H11.5381H9.75412V27.124H11.5381ZM11.5381 26.9775L12.4301 25.4326L4.88811 21.0781L3.9961 22.623L3.1041 24.168L10.6461 28.5225L11.5381 26.9775ZM3.9961 22.623L4.9065 21.0889L4.81763 21.0361L3.90723 22.5703L2.99684 24.1045L3.0857 24.1572L3.9961 22.623ZM3.90723 22.5703L4.83816 21.0485C3.82157 20.4266 3.48065 19.1022 4.08014 18.0638L2.53516 17.1719L0.990191 16.2799C-0.579494 18.9987 0.313322 22.4631 2.97631 24.0921L3.90723 22.5703ZM2.53516 17.1719L4.08007 18.064C4.67963 17.0257 5.99715 16.6587 7.04396 17.2282L7.89649 15.6611L8.74903 14.0941C6.00683 12.6022 2.5601 13.5611 0.990258 16.2798L2.53516 17.1719ZM7.89649 15.6611L7.01868 17.2142L7.10852 17.265L7.98634 15.7119L8.86415 14.1589L8.77431 14.1081L7.89649 15.6611ZM7.98634 15.7119L7.09461 17.257L10.6464 19.3068L11.5381 17.7617L12.4298 16.2166L8.87806 14.1668L7.98634 15.7119ZM11.5381 17.7617H13.3221V17.6299H11.5381H9.75412V17.7617H11.5381ZM11.5381 17.6299L12.4487 16.0958L8.19575 13.5714L7.28516 15.1055L6.37458 16.6395L10.6275 19.164L11.5381 17.6299ZM7.28516 15.1055L8.19595 13.5715C7.14856 12.9496 6.80331 11.5955 7.42557 10.5475L5.89161 9.63672L4.35765 8.72594C2.72976 11.4677 3.63199 15.0111 6.37438 16.6394L7.28516 15.1055ZM5.89161 9.63672L7.42548 10.5477C8.04764 9.50004 9.40101 9.15513 10.4486 9.77713L11.3594 8.24316L12.2702 6.7092C9.52819 5.08119 5.98595 5.98416 4.35774 8.72578L5.89161 9.63672ZM11.3594 8.24316L10.4527 9.77953L10.6314 9.885L11.5381 8.34863L12.4448 6.81226L12.2661 6.70679L11.3594 8.24316ZM11.5381 8.34863H13.3221V5.83398H11.5381H9.75412V8.34863H11.5381ZM11.5381 5.83398L13.3221 5.83408C13.3221 4.61568 14.31 3.62778 15.5284 3.62772L15.5283 1.84375L15.5282 0.0597779C12.3395 0.0599295 9.75429 2.64513 9.75412 5.83389L11.5381 5.83398Z" fill="#ECA93E"/>
<path d="M50.2023 22.1662C51.1608 22.3826 51.9184 22.8619 52.475 23.604C53.0471 24.3307 53.3331 25.1656 53.3331 26.1087C53.3331 27.5002 52.8538 28.5902 51.8952 29.3787C50.9367 30.1673 49.5915 30.5615 47.8599 30.5615H39.766V14.2114H47.6048C49.2746 14.2114 50.5811 14.5825 51.5242 15.3246C52.4828 16.0667 52.9621 17.1104 52.9621 18.4555C52.9621 19.4141 52.707 20.2181 52.1967 20.8674C51.702 21.5013 51.0372 21.9342 50.2023 22.1662ZM44.3116 20.7051H46.6076C47.7517 20.7051 48.3237 20.2335 48.3237 19.2904C48.3237 18.3163 47.7517 17.8293 46.6076 17.8293H44.3116V20.7051ZM46.9554 26.8972C48.0995 26.8972 48.6716 26.418 48.6716 25.4594C48.6716 24.9646 48.517 24.5858 48.2078 24.323C47.914 24.0601 47.4888 23.9287 46.9322 23.9287H44.3116V26.8972H46.9554ZM61.3783 30.7239C60.0795 30.7239 58.9122 30.4533 57.8763 29.9122C56.8559 29.371 56.0519 28.598 55.4644 27.593C54.8769 26.588 54.5831 25.4052 54.5831 24.0447C54.5831 22.6996 54.8769 21.5245 55.4644 20.5195C56.0674 19.5146 56.8791 18.7415 57.8995 18.2004C58.9354 17.6592 60.1027 17.3887 61.4015 17.3887C62.7002 17.3887 63.8598 17.6592 64.8802 18.2004C65.9161 18.7415 66.7278 19.5146 67.3153 20.5195C67.9183 21.5245 68.2198 22.6996 68.2198 24.0447C68.2198 25.3898 67.9183 26.5726 67.3153 27.593C66.7278 28.598 65.9161 29.371 64.8802 29.9122C63.8443 30.4533 62.677 30.7239 61.3783 30.7239ZM61.3783 26.7813C62.0122 26.7813 62.5378 26.5494 62.9553 26.0855C63.3882 25.6062 63.6047 24.926 63.6047 24.0447C63.6047 23.1634 63.3882 22.4908 62.9553 22.027C62.5378 21.5632 62.0199 21.3313 61.4015 21.3313C60.783 21.3313 60.2651 21.5632 59.8476 22.027C59.4302 22.4908 59.2214 23.1634 59.2214 24.0447C59.2214 24.9414 59.4224 25.6217 59.8244 26.0855C60.2264 26.5494 60.7444 26.7813 61.3783 26.7813ZM74.6147 19.847C75.1249 19.1049 75.7434 18.5173 76.47 18.0844C77.1967 17.6515 77.9775 17.4351 78.8124 17.4351V22.2821H77.5369C76.5473 22.2821 75.8129 22.4754 75.3337 22.8619C74.8544 23.2484 74.6147 23.921 74.6147 24.8796V30.5615H70.0692V17.551H74.6147V19.847ZM79.6998 24.0447C79.6998 22.6996 79.9781 21.5245 80.5347 20.5195C81.0913 19.5146 81.8644 18.7415 82.8539 18.2004C83.8589 17.6592 85.003 17.3887 86.2863 17.3887C87.9406 17.3887 89.3321 17.8448 90.4608 18.757C91.5894 19.6537 92.3161 20.9138 92.6408 22.5372H87.8169C87.5386 21.6869 86.9975 21.2617 86.1935 21.2617C85.6214 21.2617 85.1653 21.5013 84.8252 21.9806C84.5005 22.4445 84.3382 23.1325 84.3382 24.0447C84.3382 24.9569 84.5005 25.6526 84.8252 26.1319C85.1653 26.6112 85.6214 26.8509 86.1935 26.8509C87.0129 26.8509 87.5541 26.4257 87.8169 25.5753H92.6408C92.3161 27.1833 91.5894 28.4434 90.4608 29.3556C89.3321 30.2678 87.9406 30.7239 86.2863 30.7239C85.003 30.7239 83.8589 30.4533 82.8539 29.9122C81.8644 29.371 81.0913 28.598 80.5347 27.593C79.9781 26.588 79.6998 25.4052 79.6998 24.0447ZM103.087 17.4351C104.571 17.4351 105.746 17.9375 106.612 18.9425C107.493 19.932 107.934 21.2771 107.934 22.9779V30.5615H103.388V23.5808C103.388 22.8387 103.195 22.2589 102.808 21.8415C102.422 21.4086 101.904 21.1921 101.255 21.1921C100.574 21.1921 100.041 21.4086 99.6544 21.8415C99.2679 22.2589 99.0746 22.8387 99.0746 23.5808V30.5615H94.5291V13.3997H99.0746V19.4063C99.4766 18.8188 100.018 18.3473 100.698 17.9917C101.394 17.6206 102.19 17.4351 103.087 17.4351ZM122.859 23.9055C122.859 24.2611 122.836 24.6167 122.789 24.9723H114.185C114.231 25.6835 114.425 26.217 114.765 26.5726C115.12 26.9127 115.569 27.0828 116.11 27.0828C116.868 27.0828 117.409 26.7426 117.733 26.0623H122.58C122.379 26.9591 121.985 27.7631 121.398 28.4743C120.826 29.17 120.099 29.7189 119.218 30.1209C118.336 30.5229 117.362 30.7239 116.296 30.7239C115.012 30.7239 113.868 30.4533 112.863 29.9122C111.874 29.371 111.093 28.598 110.521 27.593C109.964 26.588 109.686 25.4052 109.686 24.0447C109.686 22.6841 109.964 21.5091 110.521 20.5195C111.077 19.5146 111.85 18.7415 112.84 18.2004C113.845 17.6592 114.997 17.3887 116.296 17.3887C117.579 17.3887 118.715 17.6515 119.705 18.1772C120.694 18.7029 121.467 19.4605 122.024 20.45C122.58 21.424 122.859 22.5759 122.859 23.9055ZM118.22 22.7691C118.22 22.2125 118.035 21.7796 117.664 21.4704C117.293 21.1457 116.829 20.9834 116.272 20.9834C115.716 20.9834 115.26 21.138 114.904 21.4472C114.548 21.741 114.316 22.1816 114.208 22.7691H118.22ZM130.262 30.7239C129.087 30.7239 128.035 30.5306 127.108 30.1441C126.196 29.7421 125.469 29.2009 124.928 28.5207C124.402 27.8249 124.108 27.0441 124.046 26.1783H128.453C128.515 26.5958 128.708 26.9204 129.033 27.1524C129.357 27.3843 129.759 27.5002 130.239 27.5002C130.61 27.5002 130.903 27.4229 131.12 27.2683C131.336 27.1137 131.445 26.9127 131.445 26.6653C131.445 26.3406 131.267 26.101 130.911 25.9464C130.556 25.7918 129.968 25.6217 129.149 25.4362C128.221 25.2506 127.448 25.0419 126.829 24.81C126.211 24.5781 125.67 24.1993 125.206 23.6736C124.758 23.1479 124.533 22.4367 124.533 21.54C124.533 20.7669 124.742 20.0712 125.16 19.4527C125.577 18.8188 126.188 18.3163 126.992 17.9453C127.811 17.5742 128.793 17.3887 129.937 17.3887C131.638 17.3887 132.975 17.8061 133.949 18.641C134.923 19.4759 135.488 20.5737 135.642 21.9342H131.537C131.46 21.5168 131.274 21.1998 130.981 20.9834C130.702 20.7515 130.324 20.6355 129.844 20.6355C129.473 20.6355 129.187 20.7051 128.986 20.8442C128.801 20.9834 128.708 21.1766 128.708 21.424C128.708 21.7332 128.886 21.9729 129.241 22.143C129.597 22.2976 130.169 22.4599 130.958 22.63C131.901 22.831 132.681 23.0552 133.3 23.3025C133.934 23.5499 134.483 23.9519 134.946 24.5085C135.426 25.0496 135.665 25.7918 135.665 26.7349C135.665 27.4925 135.441 28.1728 134.993 28.7758C134.56 29.3787 133.934 29.858 133.114 30.2136C132.31 30.5538 131.36 30.7239 130.262 30.7239ZM145.577 26.6885V30.5615H143.605C140.281 30.5615 138.619 28.9149 138.619 25.6217V21.3313H137.019V17.551H138.619V14.397H143.188V17.551H145.553V21.3313H143.188V25.6913C143.188 26.0469 143.265 26.302 143.42 26.4566C143.59 26.6112 143.868 26.6885 144.255 26.6885H145.577ZM160.092 23.9055C160.092 24.2611 160.069 24.6167 160.023 24.9723H151.419C151.465 25.6835 151.658 26.217 151.998 26.5726C152.354 26.9127 152.802 27.0828 153.343 27.0828C154.101 27.0828 154.642 26.7426 154.967 26.0623H159.814C159.613 26.9591 159.219 27.7631 158.631 28.4743C158.059 29.17 157.332 29.7189 156.451 30.1209C155.57 30.5229 154.596 30.7239 153.529 30.7239C152.246 30.7239 151.102 30.4533 150.097 29.9122C149.107 29.371 148.326 28.598 147.754 27.593C147.198 26.588 146.919 25.4052 146.919 24.0447C146.919 22.6841 147.198 21.5091 147.754 20.5195C148.311 19.5146 149.084 18.7415 150.073 18.2004C151.078 17.6592 152.23 17.3887 153.529 17.3887C154.812 17.3887 155.949 17.6515 156.938 18.1772C157.928 18.7029 158.701 19.4605 159.257 20.45C159.814 21.424 160.092 22.5759 160.092 23.9055ZM155.454 22.7691C155.454 22.2125 155.268 21.7796 154.897 21.4704C154.526 21.1457 154.062 20.9834 153.506 20.9834C152.949 20.9834 152.493 21.138 152.137 21.4472C151.782 21.741 151.55 22.1816 151.442 22.7691H155.454ZM166.498 19.847C167.008 19.1049 167.627 18.5173 168.353 18.0844C169.08 17.6515 169.861 17.4351 170.696 17.4351V22.2821H169.42C168.431 22.2821 167.696 22.4754 167.217 22.8619C166.738 23.2484 166.498 23.921 166.498 24.8796V30.5615H161.952V17.551H166.498V19.847ZM182.469 14.4433C184.186 14.4433 185.685 14.7757 186.969 15.4406C188.267 16.0899 189.265 17.0331 189.96 18.27C190.672 19.4914 191.027 20.9215 191.027 22.5604C191.027 24.1993 190.672 25.6217 189.96 26.8277C189.265 28.0336 188.267 28.9613 186.969 29.6107C185.685 30.2446 184.186 30.5615 182.469 30.5615H177.205V14.4433H182.469ZM182.469 28.4047C184.356 28.4047 185.801 27.8945 186.806 26.8741C187.811 25.8536 188.314 24.4157 188.314 22.5604C188.314 20.6896 187.811 19.2285 186.806 18.1772C185.801 17.1258 184.356 16.6002 182.469 16.6002H179.849V28.4047H182.469ZM194.993 16.0899C194.513 16.0899 194.111 15.9276 193.787 15.6029C193.462 15.2782 193.3 14.8762 193.3 14.397C193.3 13.9177 193.462 13.5157 193.787 13.191C194.111 12.8663 194.513 12.704 194.993 12.704C195.456 12.704 195.851 12.8663 196.175 13.191C196.5 13.5157 196.662 13.9177 196.662 14.397C196.662 14.8762 196.5 15.2782 196.175 15.6029C195.851 15.9276 195.456 16.0899 194.993 16.0899ZM196.291 17.7829V30.5615H193.647V17.7829H196.291ZM204.401 30.7702C203.396 30.7702 202.491 30.5924 201.687 30.2368C200.899 29.8658 200.273 29.371 199.809 28.7526C199.345 28.1187 199.098 27.4152 199.067 26.6421H201.803C201.85 27.1833 202.105 27.6394 202.569 28.0104C203.048 28.366 203.643 28.5439 204.354 28.5439C205.096 28.5439 205.669 28.4047 206.071 28.1264C206.488 27.8326 206.697 27.4616 206.697 27.0132C206.697 26.5339 206.465 26.1783 206.001 25.9464C205.553 25.7145 204.834 25.4594 203.844 25.1811C202.886 24.9182 202.105 24.6631 201.502 24.4157C200.899 24.1684 200.373 23.7896 199.925 23.2793C199.492 22.7691 199.275 22.0966 199.275 21.2617C199.275 20.5814 199.476 19.9629 199.878 19.4063C200.28 18.8343 200.852 18.3859 201.595 18.0612C202.352 17.7365 203.218 17.5742 204.192 17.5742C205.645 17.5742 206.813 17.9453 207.694 18.6874C208.591 19.4141 209.07 20.4113 209.132 21.6791H206.488C206.442 21.1071 206.21 20.651 205.792 20.3108C205.375 19.9707 204.81 19.8006 204.099 19.8006C203.403 19.8006 202.87 19.932 202.499 20.1949C202.128 20.4577 201.942 20.8056 201.942 21.2385C201.942 21.5786 202.066 21.8647 202.313 22.0966C202.561 22.3285 202.862 22.514 203.218 22.6532C203.574 22.7769 204.099 22.9392 204.795 23.1402C205.723 23.3876 206.48 23.6427 207.068 23.9055C207.671 24.1529 208.189 24.524 208.622 25.0187C209.055 25.5135 209.279 26.1706 209.294 26.99C209.294 27.7167 209.093 28.366 208.691 28.9381C208.289 29.5102 207.717 29.9585 206.975 30.2832C206.248 30.6079 205.39 30.7702 204.401 30.7702ZM215.235 19.9398V27.0132C215.235 27.4925 215.344 27.8404 215.56 28.0568C215.792 28.2578 216.179 28.3583 216.72 28.3583H218.343V30.5615H216.256C215.065 30.5615 214.153 30.2832 213.519 29.7266C212.885 29.17 212.568 28.2656 212.568 27.0132V19.9398H211.061V17.7829H212.568V14.6057H215.235V17.7829H218.343V19.9398H215.235ZM223.424 19.6383C223.81 18.9889 224.32 18.4864 224.954 18.1308C225.604 17.7597 226.369 17.5742 227.25 17.5742V20.3108H226.578C225.542 20.3108 224.753 20.5737 224.212 21.0993C223.687 21.625 223.424 22.5372 223.424 23.8359V30.5615H220.78V17.7829H223.424V19.6383ZM231.026 16.0899C230.546 16.0899 230.144 15.9276 229.82 15.6029C229.495 15.2782 229.333 14.8762 229.333 14.397C229.333 13.9177 229.495 13.5157 229.82 13.191C230.144 12.8663 230.546 12.704 231.026 12.704C231.489 12.704 231.884 12.8663 232.208 13.191C232.533 13.5157 232.695 13.9177 232.695 14.397C232.695 14.8762 232.533 15.2782 232.208 15.6029C231.884 15.9276 231.489 16.0899 231.026 16.0899ZM232.324 17.7829V30.5615H229.681V17.7829H232.324ZM234.914 24.1606C234.914 22.8464 235.177 21.6946 235.703 20.7051C236.244 19.7001 236.986 18.9271 237.929 18.3859C238.872 17.8448 239.955 17.5742 241.176 17.5742C242.722 17.5742 243.998 17.9453 245.003 18.6874C246.023 19.4141 246.711 20.4577 247.067 21.8183H244.214C243.982 21.1844 243.611 20.6896 243.101 20.334C242.591 19.9784 241.949 19.8006 241.176 19.8006C240.094 19.8006 239.228 20.1871 238.579 20.9602C237.945 21.7178 237.628 22.7846 237.628 24.1606C237.628 25.5367 237.945 26.6112 238.579 27.3843C239.228 28.1573 240.094 28.5439 241.176 28.5439C242.707 28.5439 243.719 27.8713 244.214 26.5262H247.067C246.696 27.8249 246 28.8608 244.979 29.6339C243.959 30.3915 242.691 30.7702 241.176 30.7702C239.955 30.7702 238.872 30.4997 237.929 29.9585C236.986 29.4019 236.244 28.6289 235.703 27.6394C235.177 26.6344 234.914 25.4748 234.914 24.1606ZM252.786 19.9398V27.0132C252.786 27.4925 252.894 27.8404 253.111 28.0568C253.343 28.2578 253.729 28.3583 254.27 28.3583H255.894V30.5615H253.806C252.616 30.5615 251.704 30.2832 251.07 29.7266C250.436 29.17 250.119 28.2656 250.119 27.0132V19.9398H248.611V17.7829H250.119V14.6057H252.786V17.7829H255.894V19.9398H252.786ZM263.473 22.4676C263.473 20.8906 263.837 19.4759 264.563 18.2236C265.306 16.9712 266.303 15.9972 267.555 15.3014C268.823 14.5902 270.207 14.2346 271.706 14.2346C273.423 14.2346 274.946 14.6598 276.275 15.5101C277.62 16.345 278.594 17.5356 279.197 19.0817H276.02C275.603 18.2313 275.023 17.5974 274.281 17.1799C273.539 16.7625 272.681 16.5538 271.706 16.5538C270.64 16.5538 269.689 16.7934 268.854 17.2727C268.019 17.752 267.362 18.44 266.883 19.3368C266.419 20.2335 266.187 21.2771 266.187 22.4676C266.187 23.6581 266.419 24.7018 266.883 25.5985C267.362 26.4953 268.019 27.191 268.854 27.6858C269.689 28.1651 270.64 28.4047 271.706 28.4047C272.681 28.4047 273.539 28.196 274.281 27.7785C275.023 27.3611 275.603 26.7272 276.02 25.8768H279.197C278.594 27.4229 277.62 28.6134 276.275 29.4483C274.946 30.2832 273.423 30.7007 271.706 30.7007C270.191 30.7007 268.808 30.3528 267.555 29.657C266.303 28.9458 265.306 27.9641 264.563 26.7117C263.837 25.4594 263.473 24.0447 263.473 22.4676ZM287.835 30.7702C286.629 30.7702 285.539 30.4997 284.565 29.9585C283.591 29.4019 282.825 28.6289 282.269 27.6394C281.712 26.6344 281.434 25.4748 281.434 24.1606C281.434 22.8619 281.72 21.71 282.292 20.7051C282.864 19.7001 283.645 18.9271 284.634 18.3859C285.624 17.8448 286.729 17.5742 287.951 17.5742C289.172 17.5742 290.278 17.8448 291.267 18.3859C292.257 18.9271 293.037 19.7001 293.61 20.7051C294.182 21.71 294.468 22.8619 294.468 24.1606C294.468 25.4594 294.174 26.6112 293.586 27.6162C292.999 28.6212 292.195 29.4019 291.174 29.9585C290.169 30.4997 289.056 30.7702 287.835 30.7702ZM287.835 28.4743C288.515 28.4743 289.149 28.3119 289.737 27.9873C290.34 27.6626 290.827 27.1755 291.198 26.5262C291.569 25.8768 291.754 25.0883 291.754 24.1606C291.754 23.233 291.576 22.4522 291.221 21.8183C290.865 21.1689 290.394 20.6819 289.806 20.3572C289.219 20.0325 288.585 19.8702 287.904 19.8702C287.224 19.8702 286.59 20.0325 286.003 20.3572C285.431 20.6819 284.975 21.1689 284.634 21.8183C284.294 22.4522 284.124 23.233 284.124 24.1606C284.124 25.5367 284.472 26.6035 285.168 27.3611C285.879 28.1032 286.768 28.4743 287.835 28.4743ZM308.654 17.7829V30.5615H306.01V29.0541C305.593 29.5797 305.044 29.9972 304.363 30.3064C303.699 30.6002 302.987 30.7471 302.23 30.7471C301.225 30.7471 300.32 30.5383 299.516 30.1209C298.728 29.7034 298.102 29.085 297.638 28.2656C297.189 27.4461 296.965 26.4566 296.965 25.297V17.7829H299.586V24.9028C299.586 26.0469 299.872 26.9282 300.444 27.5466C301.016 28.1496 301.797 28.4511 302.786 28.4511C303.776 28.4511 304.557 28.1496 305.129 27.5466C305.716 26.9282 306.01 26.0469 306.01 24.9028V17.7829H308.654ZM318.589 17.5742C319.594 17.5742 320.491 17.7829 321.28 18.2004C322.084 18.6178 322.71 19.2363 323.158 20.0557C323.607 20.8751 323.831 21.8647 323.831 23.0242V30.5615H321.21V23.4185C321.21 22.2744 320.924 21.4008 320.352 20.7978C319.78 20.1794 318.999 19.8702 318.01 19.8702C317.02 19.8702 316.232 20.1794 315.644 20.7978C315.072 21.4008 314.786 22.2744 314.786 23.4185V30.5615H312.142V17.7829H314.786V19.244C315.219 18.7183 315.768 18.3086 316.433 18.0148C317.113 17.7211 317.832 17.5742 318.589 17.5742ZM326.322 24.1606C326.322 22.8464 326.585 21.6946 327.11 20.7051C327.652 19.7001 328.394 18.9271 329.337 18.3859C330.28 17.8448 331.362 17.5742 332.584 17.5742C334.13 17.5742 335.405 17.9453 336.41 18.6874C337.431 19.4141 338.119 20.4577 338.474 21.8183H335.622C335.39 21.1844 335.019 20.6896 334.509 20.334C333.998 19.9784 333.357 19.8006 332.584 19.8006C331.501 19.8006 330.636 20.1871 329.986 20.9602C329.352 21.7178 329.035 22.7846 329.035 24.1606C329.035 25.5367 329.352 26.6112 329.986 27.3843C330.636 28.1573 331.501 28.5439 332.584 28.5439C334.114 28.5439 335.127 27.8713 335.622 26.5262H338.474C338.103 27.8249 337.407 28.8608 336.387 29.6339C335.367 30.3915 334.099 30.7702 332.584 30.7702C331.362 30.7702 330.28 30.4997 329.337 29.9585C328.394 29.4019 327.652 28.6289 327.11 27.6394C326.585 26.6344 326.322 25.4748 326.322 24.1606ZM342.454 16.0899C341.975 16.0899 341.573 15.9276 341.248 15.6029C340.924 15.2782 340.761 14.8762 340.761 14.397C340.761 13.9177 340.924 13.5157 341.248 13.191C341.573 12.8663 341.975 12.704 342.454 12.704C342.918 12.704 343.312 12.8663 343.637 13.191C343.962 13.5157 344.124 13.9177 344.124 14.397C344.124 14.8762 343.962 15.2782 343.637 15.6029C343.312 15.9276 342.918 16.0899 342.454 16.0899ZM343.753 17.7829V30.5615H341.109V17.7829H343.753ZM349.868 13.3997V30.5615H347.224V13.3997H349.868Z" fill="#ECA93E"/>
</svg>
