<svg width="353" height="45" viewBox="0 0 353 45" fill="none" xmlns="http://www.w3.org/2000/svg">
<path d="M15.5283 2.75C17.732 2.75 19.5184 4.53659 19.5186 6.74023V9.28125L19.7422 9.14941C21.6371 8.02434 24.0859 8.64808 25.2109 10.543C26.3359 12.4379 25.7113 14.8866 23.8164 16.0117L19.5186 18.5635V18.6943L23.1152 16.6182L23.2051 16.5674C25.0996 15.5367 27.4817 16.1997 28.5664 18.0781C29.651 19.9567 29.0342 22.3511 27.1943 23.4766L27.1055 23.5293L19.5186 27.9092V28.0566L20.9483 27.2295L21.0381 27.1787C22.9314 26.1458 25.3135 26.8063 26.4004 28.6836C27.4872 30.5609 26.8737 32.9554 25.0352 34.083L24.9463 34.1357L19.5186 37.2773V38.7598C19.5185 40.9634 17.732 42.75 15.5283 42.75C13.3248 42.7498 11.5382 40.9633 11.5381 38.7598V37.252L6.15529 34.1357L6.06642 34.083C4.22795 32.9555 3.61451 30.5609 4.70118 28.6836C5.78806 26.8063 8.17018 26.1458 10.0635 27.1787L10.1533 27.2295L11.5381 28.0303V27.8838L3.99611 23.5293L3.90724 23.4766C2.06744 22.3511 1.45058 19.9567 2.53517 18.0781C3.61987 16.1997 6.002 15.5367 7.8965 16.5674L7.98634 16.6182L11.5381 18.668V18.5361L7.28517 16.0117C5.39028 14.8866 4.76654 12.4379 5.89161 10.543C7.0168 8.64836 9.46461 8.02441 11.3594 9.14941L11.5381 9.25488V6.74023C11.5382 4.53665 13.3247 2.7501 15.5283 2.75Z" fill="#FAF1E6"/>
<path d="M15.5283 2.75L15.5283 0.966028L15.5283 0.966028L15.5283 2.75ZM19.5186 6.74023L21.3025 6.74023L21.3025 6.74014L19.5186 6.74023ZM19.5186 9.28125H17.7346C17.7346 9.9215 18.0777 10.5126 18.6336 10.8302C19.1895 11.1479 19.873 11.1432 20.4245 10.8181L19.5186 9.28125ZM19.7422 9.14941L20.6482 10.6862L20.653 10.6834L19.7422 9.14941ZM25.2109 10.543L26.7449 9.63224L26.7449 9.63218L25.2109 10.543ZM23.8164 16.0117L24.7272 17.5457L24.7272 17.5457L23.8164 16.0117ZM19.5186 18.5635L18.6078 17.0295C18.0664 17.3509 17.7346 17.9339 17.7346 18.5635H19.5186ZM19.5186 18.6943H17.7346C17.7346 19.3317 18.0746 19.9206 18.6265 20.2393C19.1784 20.558 19.8585 20.558 20.4104 20.2394L19.5186 18.6943ZM23.1152 16.6182L22.2374 15.0651C22.2327 15.0678 22.2281 15.0704 22.2234 15.0731L23.1152 16.6182ZM23.2051 16.5674L22.3526 15.0003C22.3441 15.0049 22.3357 15.0096 22.3273 15.0143L23.2051 16.5674ZM28.5664 18.0781L30.1114 17.1862L30.1113 17.186L28.5664 18.0781ZM27.1943 23.4766L28.1047 25.0108C28.1116 25.0067 28.1184 25.0026 28.1252 24.9984L27.1943 23.4766ZM27.1055 23.5293L27.9974 25.0743C28.0036 25.0707 28.0097 25.0671 28.0159 25.0635L27.1055 23.5293ZM19.5186 27.9092L18.6266 26.3642C18.0746 26.6828 17.7346 27.2718 17.7346 27.9092H19.5186ZM19.5186 28.0566H17.7346C17.7346 28.6943 18.0749 29.2834 18.6273 29.602C19.1796 29.9206 19.86 29.9201 20.4119 29.6008L19.5186 28.0566ZM20.9483 27.2295L20.0704 25.6764C20.0652 25.6794 20.06 25.6823 20.0549 25.6853L20.9483 27.2295ZM21.0381 27.1787L20.1837 25.6126C20.1759 25.6169 20.1681 25.6213 20.1603 25.6257L21.0381 27.1787ZM26.4004 28.6836L27.9443 27.7898L27.9443 27.7897L26.4004 28.6836ZM25.0352 34.083L25.9456 35.6172C25.953 35.6128 25.9605 35.6083 25.9679 35.6038L25.0352 34.083ZM24.9463 34.1357L25.84 35.6797C25.8456 35.6765 25.8511 35.6732 25.8567 35.6699L24.9463 34.1357ZM19.5186 37.2773L18.6249 35.7334C18.0739 36.0523 17.7346 36.6407 17.7346 37.2773H19.5186ZM19.5186 38.7598L21.3025 38.7598V38.7598H19.5186ZM15.5283 42.75L15.5282 44.534L15.5283 44.534L15.5283 42.75ZM11.5381 38.7598L9.75413 38.7598L9.75413 38.7598L11.5381 38.7598ZM11.5381 37.252H13.3221C13.3221 36.6154 12.9828 36.027 12.4319 35.708L11.5381 37.252ZM6.15529 34.1357L5.24489 35.6699C5.2504 35.6732 5.25593 35.6764 5.26148 35.6797L6.15529 34.1357ZM6.06642 34.083L5.13373 35.6037C5.14113 35.6083 5.14856 35.6128 5.15602 35.6172L6.06642 34.083ZM4.70118 28.6836L3.1573 27.7897L3.15722 27.7899L4.70118 28.6836ZM10.0635 27.1787L10.9413 25.6257C10.9335 25.6212 10.9257 25.6169 10.9178 25.6126L10.0635 27.1787ZM10.1533 27.2295L11.0464 25.6851C11.0413 25.6822 11.0362 25.6793 11.0311 25.6764L10.1533 27.2295ZM11.5381 28.0303L10.645 29.5746C11.197 29.8938 11.8773 29.8941 12.4295 29.5755C12.9818 29.257 13.3221 28.6678 13.3221 28.0303H11.5381ZM11.5381 27.8838H13.3221C13.3221 27.2464 12.9821 26.6575 12.4301 26.3388L11.5381 27.8838ZM3.99611 23.5293L3.08571 25.0635C3.09182 25.0671 3.09795 25.0707 3.1041 25.0743L3.99611 23.5293ZM3.90724 23.4766L2.97632 24.9984C2.98313 25.0026 2.98997 25.0067 2.99684 25.0108L3.90724 23.4766ZM2.53517 18.0781L0.990263 17.186L0.990194 17.1862L2.53517 18.0781ZM7.8965 16.5674L8.77431 15.0143C8.76592 15.0096 8.75749 15.0049 8.74903 15.0003L7.8965 16.5674ZM7.98634 16.6182L8.87806 15.073C8.87344 15.0704 8.8688 15.0677 8.86416 15.0651L7.98634 16.6182ZM11.5381 18.668L10.6464 20.2131C11.1983 20.5316 11.8783 20.5316 12.4302 20.2129C12.9821 19.8942 13.3221 19.3053 13.3221 18.668H11.5381ZM11.5381 18.5361H13.3221C13.3221 17.9065 12.9901 17.3234 12.4487 17.0021L11.5381 18.5361ZM7.28517 16.0117L6.37438 17.5457L6.37458 17.5458L7.28517 16.0117ZM5.89161 10.543L4.35775 9.63203L4.35765 9.63219L5.89161 10.543ZM11.3594 9.14941L10.4486 10.6834L10.4527 10.6858L11.3594 9.14941ZM11.5381 9.25488L10.6314 10.7913C11.1829 11.1167 11.8666 11.1216 12.4227 10.8041C12.9788 10.4865 13.3221 9.89528 13.3221 9.25488H11.5381ZM11.5381 6.74023L9.75413 6.74014V6.74023H11.5381ZM15.5283 2.75L15.5283 4.53397C16.7466 4.53397 17.7345 5.52178 17.7346 6.74033L19.5186 6.74023L21.3025 6.74014C21.3024 3.5514 18.7174 0.966028 15.5283 0.966028L15.5283 2.75ZM19.5186 6.74023H17.7346V9.28125H19.5186H21.3025V6.74023H19.5186ZM19.5186 9.28125L20.4245 10.8181L20.6482 10.6862L19.7422 9.14941L18.8362 7.61261L18.6126 7.74445L19.5186 9.28125ZM19.7422 9.14941L20.653 10.6834C21.701 10.0611 23.0551 10.4064 23.677 11.4538L25.2109 10.543L26.7449 9.63218C25.1166 6.8898 21.5732 5.98756 18.8314 7.61545L19.7422 9.14941ZM25.2109 10.543L23.677 11.4537C24.2988 12.5011 23.9536 13.8555 22.9056 14.4778L23.8164 16.0117L24.7272 17.5457C27.4689 15.9178 28.3731 12.3746 26.7449 9.63224L25.2109 10.543ZM23.8164 16.0117L22.9057 14.4777L18.6078 17.0295L19.5186 18.5635L20.4293 20.0974L24.7272 17.5457L23.8164 16.0117ZM19.5186 18.5635H17.7346V18.6943H19.5186H21.3025V18.5635H19.5186ZM19.5186 18.6943L20.4104 20.2394L24.0071 18.1632L23.1152 16.6182L22.2234 15.0731L18.6267 17.1493L19.5186 18.6943ZM23.1152 16.6182L23.9931 18.1712L24.0829 18.1204L23.2051 16.5674L22.3273 15.0143L22.2374 15.0651L23.1152 16.6182ZM23.2051 16.5674L24.0576 18.1345C25.1044 17.565 26.4219 17.9319 27.0215 18.9702L28.5664 18.0781L30.1113 17.186C28.5415 14.4674 25.0948 13.5085 22.3526 15.0003L23.2051 16.5674ZM28.5664 18.0781L27.0214 18.9701C27.621 20.0085 27.28 21.3329 26.2634 21.9547L27.1943 23.4766L28.1252 24.9984C30.7883 23.3694 31.6811 19.905 30.1114 17.1862L28.5664 18.0781ZM27.1943 23.4766L26.284 21.9424L26.1951 21.9951L27.1055 23.5293L28.0159 25.0635L28.1047 25.0108L27.1943 23.4766ZM27.1055 23.5293L26.2136 21.9843L18.6266 26.3642L19.5186 27.9092L20.4105 29.4542L27.9974 25.0743L27.1055 23.5293ZM19.5186 27.9092H17.7346V28.0566H19.5186H21.3025V27.9092H19.5186ZM19.5186 28.0566L20.4119 29.6008L21.8416 28.7737L20.9483 27.2295L20.0549 25.6853L18.6252 26.5125L19.5186 28.0566ZM20.9483 27.2295L21.8261 28.7826L21.9159 28.7318L21.0381 27.1787L20.1603 25.6257L20.0704 25.6764L20.9483 27.2295ZM21.0381 27.1787L21.8925 28.7448C22.9382 28.1743 24.2555 28.5394 24.8565 29.5774L26.4004 28.6836L27.9443 27.7897C26.3715 25.0732 22.9246 24.1174 20.1837 25.6126L21.0381 27.1787ZM26.4004 28.6836L24.8565 29.5774C25.4573 30.6153 25.1181 31.9394 24.1025 32.5623L25.0352 34.083L25.9679 35.6038C28.6293 33.9715 29.517 30.5065 27.9443 27.7898L26.4004 28.6836ZM25.0352 34.083L24.1248 32.5488L24.0359 32.6016L24.9463 34.1357L25.8567 35.6699L25.9456 35.6172L25.0352 34.083ZM24.9463 34.1357L24.0526 32.5918L18.6249 35.7334L19.5186 37.2773L20.4122 38.8213L25.84 35.6797L24.9463 34.1357ZM19.5186 37.2773H17.7346V38.7598H19.5186H21.3025V37.2773H19.5186ZM19.5186 38.7598L17.7346 38.7597C17.7346 39.9782 16.7467 40.966 15.5283 40.966L15.5283 42.75L15.5283 44.534C18.7174 44.534 21.3024 41.9487 21.3025 38.7598L19.5186 38.7598ZM15.5283 42.75L15.5285 40.966C14.31 40.9659 13.3221 39.978 13.3221 38.7597L11.5381 38.7598L9.75413 38.7598C9.75423 41.9487 12.3396 44.5337 15.5282 44.534L15.5283 42.75ZM11.5381 38.7598H13.3221V37.252H11.5381H9.75413V38.7598H11.5381ZM11.5381 37.252L12.4319 35.708L7.04909 32.5918L6.15529 34.1357L5.26148 35.6797L10.6443 38.7959L11.5381 37.252ZM6.15529 34.1357L7.06568 32.6016L6.97682 32.5488L6.06642 34.083L5.15602 35.6172L5.24489 35.6699L6.15529 34.1357ZM6.06642 34.083L6.9991 32.5623C5.9836 31.9394 5.6443 30.6153 6.24515 29.5773L4.70118 28.6836L3.15722 27.7899C1.58472 30.5065 2.47231 33.9715 5.13373 35.6037L6.06642 34.083ZM4.70118 28.6836L6.24507 29.5774C6.84604 28.5394 8.16335 28.1743 9.20913 28.7448L10.0635 27.1787L10.9178 25.6126C8.177 24.1174 4.73007 25.0732 3.1573 27.7897L4.70118 28.6836ZM10.0635 27.1787L9.18567 28.7318L9.27552 28.7826L10.1533 27.2295L11.0311 25.6764L10.9413 25.6257L10.0635 27.1787ZM10.1533 27.2295L9.26027 28.7738L10.645 29.5746L11.5381 28.0303L12.4312 26.4859L11.0464 25.6851L10.1533 27.2295ZM11.5381 28.0303H13.3221V27.8838H11.5381H9.75413V28.0303H11.5381ZM11.5381 27.8838L12.4301 26.3388L4.88811 21.9843L3.99611 23.5293L3.1041 25.0743L10.6461 29.4287L11.5381 27.8838ZM3.99611 23.5293L4.9065 21.9951L4.81764 21.9424L3.90724 23.4766L2.99684 25.0108L3.08571 25.0635L3.99611 23.5293ZM3.90724 23.4766L4.83816 21.9547C3.82157 21.3329 3.48065 20.0085 4.08014 18.9701L2.53517 18.0781L0.990194 17.1862C-0.579491 19.905 0.31331 23.3694 2.97632 24.9984L3.90724 23.4766ZM2.53517 18.0781L4.08007 18.9702C4.67963 17.9319 5.99716 17.565 7.04396 18.1345L7.8965 16.5674L8.74903 15.0003C6.00684 13.5085 2.56011 14.4674 0.990263 17.186L2.53517 18.0781ZM7.8965 16.5674L7.01868 18.1204L7.10852 18.1712L7.98634 16.6182L8.86416 15.0651L8.77431 15.0143L7.8965 16.5674ZM7.98634 16.6182L7.09462 18.1633L10.6464 20.2131L11.5381 18.668L12.4298 17.1229L8.87806 15.073L7.98634 16.6182ZM11.5381 18.668H13.3221V18.5361H11.5381H9.75413V18.668H11.5381ZM11.5381 18.5361L12.4487 17.0021L8.19575 14.4776L7.28517 16.0117L6.37458 17.5458L10.6275 20.0702L11.5381 18.5361ZM7.28517 16.0117L8.19595 14.4778C7.14856 13.8559 6.80332 12.5018 7.42558 11.4537L5.89161 10.543L4.35765 9.63219C2.72976 12.374 3.632 15.9174 6.37438 17.5457L7.28517 16.0117ZM5.89161 10.543L7.42548 11.4539C8.04764 10.4063 9.40102 10.0614 10.4486 10.6834L11.3594 9.14941L12.2702 7.61545C9.5282 5.98744 5.98596 6.89042 4.35775 9.63203L5.89161 10.543ZM11.3594 9.14941L10.4527 10.6858L10.6314 10.7913L11.5381 9.25488L12.4448 7.71851L12.2661 7.61304L11.3594 9.14941ZM11.5381 9.25488H13.3221V6.74023H11.5381H9.75413V9.25488H11.5381ZM11.5381 6.74023L13.3221 6.74033C13.3221 5.52191 14.31 4.53402 15.5284 4.53397L15.5283 2.75L15.5283 0.966028C12.3394 0.966166 9.75429 3.55138 9.75413 6.74014L11.5381 6.74023Z" fill="#044918"/>
<path d="M50.2023 23.0724C51.1608 23.2889 51.9184 23.7681 52.475 24.5103C53.0471 25.237 53.3331 26.0719 53.3331 27.015C53.3331 28.4065 52.8538 29.4965 51.8952 30.285C50.9367 31.0735 49.5915 31.4678 47.8599 31.4678H39.766V15.1177H47.6048C49.2746 15.1177 50.5811 15.4887 51.5242 16.2309C52.4828 16.973 52.9621 18.0166 52.9621 19.3617C52.9621 20.3203 52.707 21.1243 52.1967 21.7737C51.702 22.4076 51.0372 22.8405 50.2023 23.0724ZM44.3116 21.6113H46.6076C47.7517 21.6113 48.3237 21.1398 48.3237 20.1966C48.3237 19.2226 47.7517 18.7356 46.6076 18.7356H44.3116V21.6113ZM46.9554 27.8035C48.0995 27.8035 48.6716 27.3242 48.6716 26.3656C48.6716 25.8709 48.517 25.4921 48.2078 25.2292C47.914 24.9664 47.4888 24.835 46.9322 24.835H44.3116V27.8035H46.9554ZM61.3783 31.6301C60.0795 31.6301 58.9122 31.3595 57.8763 30.8184C56.8559 30.2773 56.0519 29.5042 55.4644 28.4992C54.8769 27.4943 54.5831 26.3115 54.5831 24.9509C54.5831 23.6058 54.8769 22.4308 55.4644 21.4258C56.0674 20.4208 56.8791 19.6478 57.8995 19.1066C58.9354 18.5655 60.1027 18.2949 61.4015 18.2949C62.7002 18.2949 63.8598 18.5655 64.8802 19.1066C65.9161 19.6478 66.7278 20.4208 67.3153 21.4258C67.9183 22.4308 68.2198 23.6058 68.2198 24.9509C68.2198 26.296 67.9183 27.4788 67.3153 28.4992C66.7278 29.5042 65.9161 30.2773 64.8802 30.8184C63.8443 31.3595 62.677 31.6301 61.3783 31.6301ZM61.3783 27.6875C62.0122 27.6875 62.5378 27.4556 62.9553 26.9918C63.3882 26.5125 63.6047 25.8322 63.6047 24.9509C63.6047 24.0696 63.3882 23.3971 62.9553 22.9333C62.5378 22.4694 62.0199 22.2375 61.4015 22.2375C60.783 22.2375 60.2651 22.4694 59.8476 22.9333C59.4302 23.3971 59.2214 24.0696 59.2214 24.9509C59.2214 25.8477 59.4224 26.528 59.8244 26.9918C60.2264 27.4556 60.7444 27.6875 61.3783 27.6875ZM74.6147 20.7532C75.1249 20.0111 75.7434 19.4236 76.47 18.9907C77.1967 18.5578 77.9775 18.3413 78.8124 18.3413V23.1884H77.5369C76.5473 23.1884 75.8129 23.3816 75.3337 23.7681C74.8544 24.1547 74.6147 24.8272 74.6147 25.7858V31.4678H70.0692V18.4573H74.6147V20.7532ZM79.6998 24.9509C79.6998 23.6058 79.9781 22.4308 80.5347 21.4258C81.0913 20.4208 81.8644 19.6478 82.8539 19.1066C83.8589 18.5655 85.003 18.2949 86.2863 18.2949C87.9406 18.2949 89.3321 18.751 90.4608 19.6632C91.5894 20.56 92.3161 21.8201 92.6408 23.4435H87.8169C87.5386 22.5931 86.9975 22.1679 86.1935 22.1679C85.6214 22.1679 85.1653 22.4076 84.8252 22.8869C84.5005 23.3507 84.3382 24.0387 84.3382 24.9509C84.3382 25.8631 84.5005 26.5589 84.8252 27.0382C85.1653 27.5175 85.6214 27.7571 86.1935 27.7571C87.0129 27.7571 87.5541 27.3319 87.8169 26.4816H92.6408C92.3161 28.0895 91.5894 29.3496 90.4608 30.2618C89.3321 31.174 87.9406 31.6301 86.2863 31.6301C85.003 31.6301 83.8589 31.3595 82.8539 30.8184C81.8644 30.2773 81.0913 29.5042 80.5347 28.4992C79.9781 27.4943 79.6998 26.3115 79.6998 24.9509ZM103.087 18.3413C104.571 18.3413 105.746 18.8438 106.612 19.8488C107.493 20.8383 107.934 22.1834 107.934 23.8841V31.4678H103.388V24.4871C103.388 23.745 103.195 23.1652 102.808 22.7477C102.422 22.3148 101.904 22.0984 101.255 22.0984C100.574 22.0984 100.041 22.3148 99.6544 22.7477C99.2679 23.1652 99.0746 23.745 99.0746 24.4871V31.4678H94.5291V14.306H99.0746V20.3126C99.4766 19.7251 100.018 19.2535 100.698 18.8979C101.394 18.5268 102.19 18.3413 103.087 18.3413ZM122.859 24.8118C122.859 25.1674 122.836 25.523 122.789 25.8786H114.185C114.231 26.5898 114.425 27.1232 114.765 27.4788C115.12 27.819 115.569 27.989 116.11 27.989C116.868 27.989 117.409 27.6489 117.733 26.9686H122.58C122.379 27.8653 121.985 28.6693 121.398 29.3805C120.826 30.0763 120.099 30.6251 119.218 31.0271C118.336 31.4291 117.362 31.6301 116.296 31.6301C115.012 31.6301 113.868 31.3595 112.863 30.8184C111.874 30.2773 111.093 29.5042 110.521 28.4992C109.964 27.4943 109.686 26.3115 109.686 24.9509C109.686 23.5903 109.964 22.4153 110.521 21.4258C111.077 20.4208 111.85 19.6478 112.84 19.1066C113.845 18.5655 114.997 18.2949 116.296 18.2949C117.579 18.2949 118.715 18.5578 119.705 19.0834C120.694 19.6091 121.467 20.3667 122.024 21.3562C122.58 22.3303 122.859 23.4821 122.859 24.8118ZM118.22 23.6754C118.22 23.1188 118.035 22.6859 117.664 22.3767C117.293 22.052 116.829 21.8896 116.272 21.8896C115.716 21.8896 115.26 22.0442 114.904 22.3535C114.548 22.6472 114.316 23.0879 114.208 23.6754H118.22ZM130.262 31.6301C129.087 31.6301 128.035 31.4369 127.108 31.0503C126.196 30.6483 125.469 30.1072 124.928 29.4269C124.402 28.7312 124.108 27.9504 124.046 27.0846H128.453C128.515 27.502 128.708 27.8267 129.033 28.0586C129.357 28.2905 129.759 28.4065 130.239 28.4065C130.61 28.4065 130.903 28.3292 131.12 28.1746C131.336 28.0199 131.445 27.819 131.445 27.5716C131.445 27.2469 131.267 27.0072 130.911 26.8526C130.556 26.698 129.968 26.528 129.149 26.3424C128.221 26.1569 127.448 25.9482 126.829 25.7162C126.211 25.4843 125.67 25.1055 125.206 24.5799C124.758 24.0542 124.533 23.343 124.533 22.4462C124.533 21.6732 124.742 20.9774 125.16 20.359C125.577 19.7251 126.188 19.2226 126.992 18.8515C127.811 18.4805 128.793 18.2949 129.937 18.2949C131.638 18.2949 132.975 18.7124 133.949 19.5473C134.923 20.3822 135.488 21.4799 135.642 22.8405H131.537C131.46 22.423 131.274 22.1061 130.981 21.8896C130.702 21.6577 130.324 21.5418 129.844 21.5418C129.473 21.5418 129.187 21.6113 128.986 21.7505C128.801 21.8896 128.708 22.0829 128.708 22.3303C128.708 22.6395 128.886 22.8791 129.241 23.0492C129.597 23.2038 130.169 23.3662 130.958 23.5362C131.901 23.7372 132.681 23.9614 133.3 24.2088C133.934 24.4562 134.483 24.8582 134.946 25.4148C135.426 25.9559 135.665 26.698 135.665 27.6412C135.665 28.3987 135.441 29.079 134.993 29.682C134.56 30.285 133.934 30.7643 133.114 31.1199C132.31 31.46 131.36 31.6301 130.262 31.6301ZM145.577 27.5948V31.4678H143.605C140.281 31.4678 138.619 29.8212 138.619 26.528V22.2375H137.019V18.4573H138.619V15.3032H143.188V18.4573H145.553V22.2375H143.188V26.5975C143.188 26.9531 143.265 27.2082 143.42 27.3629C143.59 27.5175 143.868 27.5948 144.255 27.5948H145.577ZM160.092 24.8118C160.092 25.1674 160.069 25.523 160.023 25.8786H151.419C151.465 26.5898 151.658 27.1232 151.998 27.4788C152.354 27.819 152.802 27.989 153.343 27.989C154.101 27.989 154.642 27.6489 154.967 26.9686H159.814C159.613 27.8653 159.219 28.6693 158.631 29.3805C158.059 30.0763 157.332 30.6251 156.451 31.0271C155.57 31.4291 154.596 31.6301 153.529 31.6301C152.246 31.6301 151.102 31.3595 150.097 30.8184C149.107 30.2773 148.326 29.5042 147.754 28.4992C147.198 27.4943 146.919 26.3115 146.919 24.9509C146.919 23.5903 147.198 22.4153 147.754 21.4258C148.311 20.4208 149.084 19.6478 150.073 19.1066C151.078 18.5655 152.23 18.2949 153.529 18.2949C154.812 18.2949 155.949 18.5578 156.938 19.0834C157.928 19.6091 158.701 20.3667 159.257 21.3562C159.814 22.3303 160.092 23.4821 160.092 24.8118ZM155.454 23.6754C155.454 23.1188 155.268 22.6859 154.897 22.3767C154.526 22.052 154.062 21.8896 153.506 21.8896C152.949 21.8896 152.493 22.0442 152.137 22.3535C151.782 22.6472 151.55 23.0879 151.442 23.6754H155.454ZM166.498 20.7532C167.008 20.0111 167.627 19.4236 168.353 18.9907C169.08 18.5578 169.861 18.3413 170.696 18.3413V23.1884H169.42C168.431 23.1884 167.696 23.3816 167.217 23.7681C166.738 24.1547 166.498 24.8272 166.498 25.7858V31.4678H161.952V18.4573H166.498V20.7532ZM182.469 15.3496C184.186 15.3496 185.685 15.682 186.969 16.3468C188.267 16.9962 189.265 17.9393 189.96 19.1762C190.672 20.3976 191.027 21.8278 191.027 23.4667C191.027 25.1055 190.672 26.528 189.96 27.7339C189.265 28.9399 188.267 29.8676 186.969 30.5169C185.685 31.1508 184.186 31.4678 182.469 31.4678H177.205V15.3496H182.469ZM182.469 29.311C184.356 29.311 185.801 28.8007 186.806 27.7803C187.811 26.7599 188.314 25.322 188.314 23.4667C188.314 21.5959 187.811 20.1348 186.806 19.0834C185.801 18.0321 184.356 17.5064 182.469 17.5064H179.849V29.311H182.469ZM194.993 16.9962C194.513 16.9962 194.111 16.8338 193.787 16.5092C193.462 16.1845 193.3 15.7825 193.3 15.3032C193.3 14.8239 193.462 14.4219 193.787 14.0972C194.111 13.7726 194.513 13.6102 194.993 13.6102C195.456 13.6102 195.851 13.7726 196.175 14.0972C196.5 14.4219 196.662 14.8239 196.662 15.3032C196.662 15.7825 196.5 16.1845 196.175 16.5092C195.851 16.8338 195.456 16.9962 194.993 16.9962ZM196.291 18.6892V31.4678H193.647V18.6892H196.291ZM204.401 31.6765C203.396 31.6765 202.491 31.4987 201.687 31.1431C200.899 30.772 200.273 30.2773 199.809 29.6588C199.345 29.0249 199.098 28.3214 199.067 27.5484H201.803C201.85 28.0895 202.105 28.5456 202.569 28.9167C203.048 29.2723 203.643 29.4501 204.354 29.4501C205.096 29.4501 205.669 29.311 206.071 29.0327C206.488 28.7389 206.697 28.3678 206.697 27.9195C206.697 27.4402 206.465 27.0846 206.001 26.8526C205.553 26.6207 204.834 26.3656 203.844 26.0873C202.886 25.8245 202.105 25.5694 201.502 25.322C200.899 25.0746 200.373 24.6958 199.925 24.1856C199.492 23.6754 199.275 23.0028 199.275 22.1679C199.275 21.4876 199.476 20.8692 199.878 20.3126C200.28 19.7405 200.852 19.2922 201.595 18.9675C202.352 18.6428 203.218 18.4805 204.192 18.4805C205.645 18.4805 206.813 18.8515 207.694 19.5937C208.591 20.3203 209.07 21.3176 209.132 22.5854H206.488C206.442 22.0133 206.21 21.5572 205.792 21.2171C205.375 20.8769 204.81 20.7069 204.099 20.7069C203.403 20.7069 202.87 20.8383 202.499 21.1011C202.128 21.3639 201.942 21.7118 201.942 22.1447C201.942 22.4849 202.066 22.7709 202.313 23.0028C202.561 23.2347 202.862 23.4203 203.218 23.5594C203.574 23.6831 204.099 23.8455 204.795 24.0464C205.723 24.2938 206.48 24.5489 207.068 24.8118C207.671 25.0592 208.189 25.4302 208.622 25.925C209.055 26.4197 209.279 27.0768 209.294 27.8963C209.294 28.6229 209.093 29.2723 208.691 29.8444C208.289 30.4164 207.717 30.8648 206.975 31.1895C206.248 31.5142 205.39 31.6765 204.401 31.6765ZM215.235 20.846V27.9195C215.235 28.3987 215.344 28.7466 215.56 28.9631C215.792 29.1641 216.179 29.2646 216.72 29.2646H218.343V31.4678H216.256C215.065 31.4678 214.153 31.1895 213.519 30.6329C212.885 30.0763 212.568 29.1718 212.568 27.9195V20.846H211.061V18.6892H212.568V15.5119H215.235V18.6892H218.343V20.846H215.235ZM223.424 20.5445C223.81 19.8951 224.32 19.3927 224.954 19.0371C225.604 18.666 226.369 18.4805 227.25 18.4805V21.2171H226.578C225.542 21.2171 224.753 21.4799 224.212 22.0056C223.687 22.5313 223.424 23.4435 223.424 24.7422V31.4678H220.78V18.6892H223.424V20.5445ZM231.026 16.9962C230.546 16.9962 230.144 16.8338 229.82 16.5092C229.495 16.1845 229.333 15.7825 229.333 15.3032C229.333 14.8239 229.495 14.4219 229.82 14.0972C230.144 13.7726 230.546 13.6102 231.026 13.6102C231.489 13.6102 231.884 13.7726 232.208 14.0972C232.533 14.4219 232.695 14.8239 232.695 15.3032C232.695 15.7825 232.533 16.1845 232.208 16.5092C231.884 16.8338 231.489 16.9962 231.026 16.9962ZM232.324 18.6892V31.4678H229.681V18.6892H232.324ZM234.914 25.0669C234.914 23.7527 235.177 22.6008 235.703 21.6113C236.244 20.6064 236.986 19.8333 237.929 19.2922C238.872 18.751 239.955 18.4805 241.176 18.4805C242.722 18.4805 243.998 18.8515 245.003 19.5937C246.023 20.3203 246.711 21.3639 247.067 22.7245H244.214C243.982 22.0906 243.611 21.5959 243.101 21.2403C242.591 20.8847 241.949 20.7069 241.176 20.7069C240.094 20.7069 239.228 21.0934 238.579 21.8664C237.945 22.624 237.628 23.6908 237.628 25.0669C237.628 26.4429 237.945 27.5175 238.579 28.2905C239.228 29.0636 240.094 29.4501 241.176 29.4501C242.707 29.4501 243.719 28.7775 244.214 27.4324H247.067C246.696 28.7312 246 29.7671 244.979 30.5401C243.959 31.2977 242.691 31.6765 241.176 31.6765C239.955 31.6765 238.872 31.4059 237.929 30.8648C236.986 30.3082 236.244 29.5351 235.703 28.5456C235.177 27.5407 234.914 26.3811 234.914 25.0669ZM252.786 20.846V27.9195C252.786 28.3987 252.894 28.7466 253.111 28.9631C253.343 29.1641 253.729 29.2646 254.27 29.2646H255.894V31.4678H253.806C252.616 31.4678 251.704 31.1895 251.07 30.6329C250.436 30.0763 250.119 29.1718 250.119 27.9195V20.846H248.611V18.6892H250.119V15.5119H252.786V18.6892H255.894V20.846H252.786ZM263.473 23.3739C263.473 21.7969 263.837 20.3822 264.563 19.1298C265.306 17.8775 266.303 16.9034 267.555 16.2077C268.823 15.4965 270.207 15.1409 271.706 15.1409C273.423 15.1409 274.946 15.566 276.275 16.4164C277.62 17.2513 278.594 18.4418 279.197 19.9879H276.02C275.603 19.1376 275.023 18.5036 274.281 18.0862C273.539 17.6687 272.681 17.46 271.706 17.46C270.64 17.46 269.689 17.6997 268.854 18.179C268.019 18.6583 267.362 19.3463 266.883 20.243C266.419 21.1398 266.187 22.1834 266.187 23.3739C266.187 24.5644 266.419 25.608 266.883 26.5048C267.362 27.4015 268.019 28.0973 268.854 28.592C269.689 29.0713 270.64 29.311 271.706 29.311C272.681 29.311 273.539 29.1022 274.281 28.6848C275.023 28.2673 275.603 27.6334 276.02 26.7831H279.197C278.594 28.3292 277.62 29.5197 276.275 30.3546C274.946 31.1895 273.423 31.6069 271.706 31.6069C270.191 31.6069 268.808 31.259 267.555 30.5633C266.303 29.8521 265.306 28.8703 264.563 27.618C263.837 26.3656 263.473 24.9509 263.473 23.3739ZM287.835 31.6765C286.629 31.6765 285.539 31.4059 284.565 30.8648C283.591 30.3082 282.825 29.5351 282.269 28.5456C281.712 27.5407 281.434 26.3811 281.434 25.0669C281.434 23.7681 281.72 22.6163 282.292 21.6113C282.864 20.6064 283.645 19.8333 284.634 19.2922C285.624 18.751 286.729 18.4805 287.951 18.4805C289.172 18.4805 290.278 18.751 291.267 19.2922C292.257 19.8333 293.037 20.6064 293.61 21.6113C294.182 22.6163 294.468 23.7681 294.468 25.0669C294.468 26.3656 294.174 27.5175 293.586 28.5224C292.999 29.5274 292.195 30.3082 291.174 30.8648C290.169 31.4059 289.056 31.6765 287.835 31.6765ZM287.835 29.3805C288.515 29.3805 289.149 29.2182 289.737 28.8935C290.34 28.5688 290.827 28.0818 291.198 27.4324C291.569 26.7831 291.754 25.9945 291.754 25.0669C291.754 24.1392 291.576 23.3584 291.221 22.7245C290.865 22.0752 290.394 21.5881 289.806 21.2635C289.219 20.9388 288.585 20.7764 287.904 20.7764C287.224 20.7764 286.59 20.9388 286.003 21.2635C285.431 21.5881 284.975 22.0752 284.634 22.7245C284.294 23.3584 284.124 24.1392 284.124 25.0669C284.124 26.4429 284.472 27.5097 285.168 28.2673C285.879 29.0095 286.768 29.3805 287.835 29.3805ZM308.654 18.6892V31.4678H306.01V29.9603C305.593 30.486 305.044 30.9034 304.363 31.2127C303.699 31.5064 302.987 31.6533 302.23 31.6533C301.225 31.6533 300.32 31.4446 299.516 31.0271C298.728 30.6097 298.102 29.9912 297.638 29.1718C297.189 28.3524 296.965 27.3629 296.965 26.2033V18.6892H299.586V25.809C299.586 26.9531 299.872 27.8344 300.444 28.4529C301.016 29.0558 301.797 29.3573 302.786 29.3573C303.776 29.3573 304.557 29.0558 305.129 28.4529C305.716 27.8344 306.01 26.9531 306.01 25.809V18.6892H308.654ZM318.589 18.4805C319.594 18.4805 320.491 18.6892 321.28 19.1066C322.084 19.5241 322.71 20.1425 323.158 20.962C323.607 21.7814 323.831 22.7709 323.831 23.9305V31.4678H321.21V24.3247C321.21 23.1806 320.924 22.3071 320.352 21.7041C319.78 21.0856 318.999 20.7764 318.01 20.7764C317.02 20.7764 316.232 21.0856 315.644 21.7041C315.072 22.3071 314.786 23.1806 314.786 24.3247V31.4678H312.142V18.6892H314.786V20.1503C315.219 19.6246 315.768 19.2149 316.433 18.9211C317.113 18.6273 317.832 18.4805 318.589 18.4805ZM326.322 25.0669C326.322 23.7527 326.585 22.6008 327.11 21.6113C327.652 20.6064 328.394 19.8333 329.337 19.2922C330.28 18.751 331.362 18.4805 332.584 18.4805C334.13 18.4805 335.405 18.8515 336.41 19.5937C337.431 20.3203 338.119 21.3639 338.474 22.7245H335.622C335.39 22.0906 335.019 21.5959 334.509 21.2403C333.998 20.8847 333.357 20.7069 332.584 20.7069C331.501 20.7069 330.636 21.0934 329.986 21.8664C329.352 22.624 329.035 23.6908 329.035 25.0669C329.035 26.4429 329.352 27.5175 329.986 28.2905C330.636 29.0636 331.501 29.4501 332.584 29.4501C334.114 29.4501 335.127 28.7775 335.622 27.4324H338.474C338.103 28.7312 337.407 29.7671 336.387 30.5401C335.367 31.2977 334.099 31.6765 332.584 31.6765C331.362 31.6765 330.28 31.4059 329.337 30.8648C328.394 30.3082 327.652 29.5351 327.11 28.5456C326.585 27.5407 326.322 26.3811 326.322 25.0669ZM342.454 16.9962C341.975 16.9962 341.573 16.8338 341.248 16.5092C340.924 16.1845 340.761 15.7825 340.761 15.3032C340.761 14.8239 340.924 14.4219 341.248 14.0972C341.573 13.7726 341.975 13.6102 342.454 13.6102C342.918 13.6102 343.312 13.7726 343.637 14.0972C343.962 14.4219 344.124 14.8239 344.124 15.3032C344.124 15.7825 343.962 16.1845 343.637 16.5092C343.312 16.8338 342.918 16.9962 342.454 16.9962ZM343.753 18.6892V31.4678H341.109V18.6892H343.753ZM349.868 14.306V31.4678H347.224V14.306H349.868Z" fill="#044918"/>
</svg>
